<?xml version="1.0" standalone="no"?>
<!DOCTYPE svg PUBLIC "-//W3C//DTD SVG 20010904//EN"
 "http://www.w3.org/TR/2001/REC-SVG-20010904/DTD/svg10.dtd">
<svg version="1.0" xmlns="http://www.w3.org/2000/svg"
 width="894.000000pt" height="894.000000pt" viewBox="0 0 894.000000 894.000000"
 preserveAspectRatio="xMidYMid meet">
<metadata>
Created by potrace 1.16, written by Peter Selinger 2001-2019
</metadata>
<g transform="translate(0.000000,894.000000) scale(0.100000,-0.100000)"
fill="#000000" stroke="none">
<path d="M3492 8543 c461 -2 1215 -2 1675 0 461 1 84 2 -837 2 -921 0 -1298
-1 -838 -2z"/>
<path d="M2650 8390 l0 -140 -420 0 -420 0 0 -140 0 -140 -280 0 -280 0 0
-140 0 -140 -140 0 -140 0 0 -140 0 -140 -140 0 -140 0 0 -140 0 -140 -140 0
-140 0 0 -280 0 -280 -140 0 -140 0 2 -1122 3 -1123 138 0 137 0 0 -277 0
-278 140 0 140 0 0 -135 0 -135 -140 0 -140 0 0 -705 0 -705 140 0 140 0 0
-280 0 -280 140 0 140 0 0 -140 0 -140 140 0 140 0 0 -140 0 -140 280 0 280 0
0 -140 0 -140 420 0 420 0 0 -140 0 -140 1820 0 1820 0 0 140 0 140 420 0 420
0 0 140 0 140 280 0 280 0 0 140 0 140 140 0 140 0 0 140 0 140 140 0 140 0 0
280 0 280 140 0 140 0 0 705 0 705 -140 0 -140 0 0 135 0 135 140 0 140 0 0
278 0 277 137 0 138 0 3 1123 2 1122 -140 0 -140 0 0 280 0 280 -140 0 -140 0
0 140 0 140 -140 0 -140 0 0 140 0 140 -140 0 -140 0 0 140 0 140 -280 0 -280
0 0 140 0 140 -560 0 -560 0 0 140 0 140 -1680 0 -1680 0 0 -140z m3220 -150
l0 -140 555 0 554 0 3 -137 3 -138 277 -3 277 -2 3 -138 3 -137 137 -3 137 -3
3 -137 3 -137 137 -3 137 -3 3 -137 3 -137 138 -3 137 -3 0 -274 0 -275 140 0
140 0 0 -980 0 -980 -140 0 -140 0 0 -280 0 -280 -140 0 -140 0 0 -280 0 -280
140 0 140 0 0 -557 0 -558 -138 0 -137 0 -3 -277 -2 -277 -138 -3 -137 -3 -3
-137 -3 -137 -137 -3 -137 -3 -3 -137 -3 -138 -277 -2 -277 -3 -3 -137 -3
-138 -414 0 -415 0 0 -140 0 -140 -1680 0 -1680 0 0 140 0 140 -415 0 -414 0
-3 138 -3 137 -277 3 -277 2 -3 138 -3 137 -137 3 -137 3 -3 137 -3 137 -137
3 -138 3 -2 277 -3 277 -137 0 -138 0 0 558 0 557 140 0 140 0 0 280 0 280
-140 0 -140 0 0 280 0 280 -140 0 -140 0 0 980 0 980 140 0 140 0 0 275 0 274
138 3 137 3 3 137 3 137 137 3 137 3 3 137 3 137 137 3 137 3 3 137 3 138 277
2 277 3 3 138 3 137 414 0 415 0 0 140 0 140 1540 0 1540 0 0 -140z"/>
<path d="M1400 5730 l0 -140 -140 0 -140 0 0 -140 0 -140 -140 0 -140 0 0
-420 0 -420 140 0 140 0 0 -140 0 -140 280 0 280 0 0 -140 0 -140 555 0 555 0
0 -140 0 -140 -280 0 -279 0 2 -137 2 -138 278 -3 277 -2 0 140 0 140 140 0
140 0 0 140 0 140 140 0 140 0 0 280 0 280 140 0 140 0 0 560 0 560 -140 0
-140 0 0 140 0 140 -975 0 -975 0 0 -140z m1390 -980 l0 -280 -275 2 -276 3 0
273 c1 149 1 274 1 277 0 3 124 5 275 5 l275 0 0 -280z"/>
<path d="M5590 5730 l0 -140 -140 0 -140 0 0 -560 0 -560 140 0 140 0 0 -280
0 -280 140 0 140 0 0 -140 0 -140 140 0 140 0 0 -140 0 -140 278 2 277 3 2
138 2 137 -279 0 -280 0 0 140 0 140 555 0 555 0 0 140 0 140 280 0 280 0 0
140 0 140 140 0 140 0 0 420 0 420 -140 0 -140 0 0 140 0 140 -280 0 -280 0 0
140 0 140 -835 0 -835 0 0 -140z m1111 -980 l0 -275 -276 -3 -275 -2 0 280 0
280 275 -2 276 -3 0 -275z"/>
<path d="M4190 4190 l0 -280 -140 0 -140 0 0 -420 0 -420 560 0 560 0 0 420 0
420 -140 0 -140 0 0 280 0 280 -280 0 -280 0 0 -280z"/>
<path d="M1678 3073 l-3 -278 -277 -3 -278 -2 0 -140 0 -140 280 0 280 0 0
-140 c0 -77 3 -139 8 -139 4 1 67 1 140 0 l132 -1 0 -135 0 -134 136 -3 135
-3 0 -137 0 -138 280 0 279 0 0 -140 0 -140 280 0 280 0 0 -140 0 -140 1260 0
1260 0 0 140 0 140 280 0 280 0 0 140 0 140 140 0 c77 0 139 3 139 8 -1 4 -1
67 0 140 l1 132 135 0 134 0 3 136 3 135 138 0 137 0 0 140 0 139 280 0 280 0
0 140 0 139 -137 3 -138 3 -3 137 -3 137 -137 3 -137 3 -3 138 -3 137 -139 0
-140 0 0 -280 0 -280 -275 0 -275 0 0 -140 0 -140 -1820 0 -1820 0 0 140 0
140 -275 0 -275 0 -1 133 c-1 72 -1 135 0 140 0 4 -62 7 -139 7 l-140 0 0 140
0 140 -140 0 -140 0 -2 -277z m554 -559 c2 -152 2 -276 1 -277 -1 -1 -62 -1
-137 1 l-136 3 0 275 0 274 135 0 134 0 3 -276z m560 -141 l3 -138 277 0 278
0 0 -277 0 -278 -280 0 -280 0 0 140 0 140 -140 0 -140 0 0 275 0 275 140 0
139 0 3 -137z m3910 -138 l-3 -275 -134 0 -135 0 0 275 0 275 138 0 137 0 -3
-275z m-2512 -420 l0 -415 -280 0 -280 0 0 413 c0 228 2 416 4 418 2 2 128 3
280 1 l276 -3 0 -414z m1118 0 l2 -415 -420 0 -420 0 0 413 c0 228 2 416 4
418 2 2 190 3 418 2 l413 -3 3 -415z m840 140 l2 -275 -140 0 -140 0 0 -140 0
-140 -140 0 -140 0 0 418 0 417 277 -2 278 -2 3 -276z"/>
<path d="M3563 393 c499 -2 1315 -2 1815 0 499 1 90 2 -908 2 -998 0 -1407 -1
-907 -2z"/>
</g>
</svg>
